<?xml version="1.0" encoding="UTF-8"?>
<svg xmlns="http://www.w3.org/2000/svg" width="1280" height="480" viewBox="0 0 1280 480" role="img" aria-labelledby="t d">
  <title id="t">Cockpit — Consultório Dra. Érika Passos</title>
  <desc id="d">Cabeçalho do Cockpit, o sistema de gestão do consultório de estética da Dra. Érika Passos: o consultório inteiro em uma tela. À esquerda, o nome Cockpit com um reflexo que atravessa as letras e, logo abaixo, os módulos se revezando no destaque: Agenda, Pacientes, Prontuários, Financeiro, Documentos e Contratos e Relacionamento. Embaixo, a stack: Next.js 15, React 19, Supabase, Postgres com RLS, banco em São Paulo. À direita, um cartão de vidro imita a Agenda de hoje da Visão Geral, com quatro atendimentos fictícios na ordem do relógio sobre uma linha do tempo: 09:00 Ana S., limpeza de pele profunda, confirmado; 10:30 Beatriz M., toxina botulínica, em atendimento, com o ponto pulsando; 13:00 Carla R., peeling químico, aguardando confirmação; 15:30 Daniela T., avaliação inicial, agendado. O marcador de agora, às 10:52, desliza devagar logo abaixo do atendimento em curso. Selo: hoje, no horário de São Paulo.</desc>

  <style>
    /* ------------------------------------------------------------------
       Tokens (src/app/globals.css). O fundo desta peça é o azul da marca
       nos dois temas; os tokens valem para o cartão em destaque e os chips.
       ------------------------------------------------------------------ */
    svg {
      --painel: #ffffff;
      --painel-2: #f9f9fa;
      --borda: #e3e5e8;
      --texto: #1b1c1e;
      --texto-2: #43474d;
      --texto-3: #72767c;
      --marca: #0854a0;
      --marca-acao: #0a6ed1;
      --marca-suave: #d6e9fb;
      --positivo: #107e3e;
      --positivo-fundo: #eaf5ea;
      --atencao-texto: #8f4700;
      --atencao-acento: #e9730c;
      --atencao-fundo: #fff3d6;
      --informativo: #0a6ed1;
      --informativo-texto: #0854a0;
      --informativo-fundo: #eaf3fb;
      /* Chip "Em atendimento": o único preenchido com a cor cheia */
      --em-curso-fundo: #0a6ed1;
      --em-curso-texto: #ffffff;
      font-family: "Hanken Grotesk", "Segoe UI", -apple-system, BlinkMacSystemFont, "Helvetica Neue", Arial, sans-serif;
    }
    @media (prefers-color-scheme: dark) {
      svg {
        --painel: #0d1117;
        --painel-2: #161b22;
        --borda: #30363d;
        --texto: #e6edf3;
        --texto-2: #9da7b3;
        --texto-3: #7d8590;
        --marca: #58a6ff;
        --marca-acao: #388bfd;
        --marca-suave: #0c2d6b;
        --positivo: #3fb950;
        --positivo-fundo: #0f2e1a;
        --atencao-texto: #f0a24b;
        --atencao-acento: #e9730c;
        --atencao-fundo: #3a2508;
        --informativo: #58a6ff;
        --informativo-texto: #79c0ff;
        --informativo-fundo: #0c2d6b;
        --em-curso-fundo: #58a6ff;
        --em-curso-texto: #0d1117;
      }
    }

    /* ---------------------------- Tipografia ---------------------------- */
    .tab { font-variant-numeric: tabular-nums; font-feature-settings: "tnum"; }
    .pilula-t { fill: #ffffff; font-size: 15px; font-weight: 600; }
    .titulo { font-size: 112px; font-weight: 800; letter-spacing: -3px; }
    .frase { fill: #e6f1fd; font-size: 26px; font-weight: 500; }
    .frase-forte { fill: #ffffff; font-weight: 700; }
    .palavra-t { fill: #bfe3ff; font-size: 32px; font-weight: 700; letter-spacing: -0.5px; }
    .cursor { fill: #7dd3fc; font-weight: 400; }
    .lista-t { fill: #e6f1fd; font-size: 17px; font-weight: 500; }
    .stack-t { fill: #eaf4ff; font-size: 14px; font-weight: 600; text-anchor: middle; }

    .c-titulo { fill: #ffffff; font-size: 20px; font-weight: 700; }
    .c-sub { fill: #d6e9fb; font-size: 15px; }
    .selo-t { fill: #ffffff; font-size: 14px; font-weight: 600; }
    .hora { fill: #d6e9fb; font-size: 15px; font-weight: 600; text-anchor: end; }
    .nome { fill: #ffffff; font-size: 17px; font-weight: 600; }
    .proc { fill: #c9def5; font-size: 15px; }
    .agora-t { fill: #ffffff; font-size: 13px; font-weight: 700; }
    .agora-rotulo { fill: #ffffff; font-size: 13px; font-weight: 700; letter-spacing: 1.3px; text-anchor: end; }

    /* O atendimento em curso sobe: fundo do painel, sombra e ponto pulsando */
    .hora-realce { fill: var(--marca); font-weight: 700; }
    .nome-realce { fill: var(--texto); font-weight: 700; }
    .proc-realce { fill: var(--texto-2); font-weight: 500; }

    /* ------------------------------ Formas ------------------------------ */
    .vidro-claro { fill: #ffffff; fill-opacity: 0.1; stroke: #ffffff; stroke-opacity: 0.22; }
    .linha { fill: #021226; fill-opacity: 0.4; stroke: #ffffff; stroke-opacity: 0.08; }
    .linha-realce { fill: var(--painel); stroke: var(--borda); }
    .ic-branco { stroke: #ffffff; }
    .ic-ciano { stroke: #9fdcff; }
    .seta { stroke: #ffffff; stroke-opacity: 0.45; }
    .seta-realce { stroke: var(--marca); }

    /* Chips de situação (status-chip.tsx): texto + ícone, nunca só cor */
    .chip-t { font-size: 13px; font-weight: 600; text-anchor: middle; }
    .chip-pos { fill: var(--positivo-fundo); stroke: var(--positivo); stroke-opacity: 0.4; }
    .chip-pos-t { fill: var(--positivo); }
    .ic-pos { stroke: var(--positivo); }
    .chip-at { fill: var(--atencao-fundo); }
    .chip-at-t { fill: var(--atencao-texto); }
    .ic-at { stroke: var(--atencao-texto); }
    .chip-inf { fill: var(--informativo-fundo); }
    .chip-inf-t { fill: var(--informativo-texto); }
    .ic-inf { stroke: var(--informativo-texto); }
    .chip-curso { fill: var(--em-curso-fundo); }
    .chip-curso-t { fill: var(--em-curso-texto); }
    .ic-curso { stroke: var(--em-curso-texto); }
    .ponto-curso { fill: var(--informativo); stroke: var(--painel); stroke-width: 4; }
    .halo-curso { fill: none; stroke: var(--informativo); stroke-width: 2; }

    /* ----------------------------- Movimento ----------------------------- */
    .entra { animation: entra 0.7s cubic-bezier(.2, .8, .2, 1) both; }
    .entra-lado { animation: entra-lado 0.65s cubic-bezier(.2, .8, .2, 1) both; }
    .aparece { animation: aparece 0.8s ease-out both; }
    .entra-cartao {
      transform-box: fill-box;
      transform-origin: center;
      animation: entra-cartao 0.9s cubic-bezier(.2, .8, .2, 1) 0.25s both;
    }
    /* Começa no meio do vaivém (-2s de 4s), que é a posição estática */
    .flutua { animation: flutua 4s ease-in-out -2s infinite alternate; }

    .aurora { transform-box: fill-box; transform-origin: center; }
    .aurora-1 { animation: deriva-1 14s ease-in-out infinite alternate; }
    .aurora-2 { animation: deriva-2 12s ease-in-out infinite alternate; }
    .aurora-3 { animation: deriva-3 13s ease-in-out infinite alternate; }

    /* Reflexo: parado, fica fora das letras */
    .brilho {
      transform: translateX(-200px) skewX(-18deg);
      animation: brilho 8s cubic-bezier(.4, 0, .3, 1) 1.6s infinite both;
    }

    /* Palavra rotativa: 6 palavras x 2s = ciclo de 12s */
    .palavra { animation: palavra 12s linear infinite both; }

    /* Laços dentro do ritmo da família (6–14 s): um sinal a cada 6 s */
    .pulso {
      transform-box: fill-box;
      transform-origin: center;
      transform: scale(1.7);
      opacity: 0.3;
      animation: pulso 6s cubic-bezier(.2, .8, .2, 1) infinite;
    }
    .traco { stroke-dasharray: 1 1; animation: traco 6s ease-in-out infinite; }

    /* Marcador "agora" e trilho percorrido andam juntos: mesmo tempo, mesma curva */
    .desliza { animation: desliza 5s ease-in-out -2.5s infinite alternate; }
    .percorrido {
      transform-box: fill-box;
      transform-origin: top;
      animation: cresce 5s ease-in-out -2.5s infinite alternate;
    }

    .estatico-rm { display: none; }

    @keyframes entra {
      from { opacity: 0; transform: translateY(16px); }
      to { opacity: 1; transform: none; }
    }
    @keyframes entra-lado {
      from { opacity: 0; transform: translateX(22px); }
      to { opacity: 1; transform: none; }
    }
    @keyframes aparece {
      from { opacity: 0; }
      to { opacity: 1; }
    }
    @keyframes entra-cartao {
      from { opacity: 0; transform: translateY(28px) scale(.97); }
      to { opacity: 1; transform: none; }
    }
    @keyframes flutua {
      from { transform: translateY(-6px); }
      to { transform: translateY(6px); }
    }
    @keyframes deriva-1 {
      from { transform: translate(0, 0) scale(1); }
      to { transform: translate(110px, 40px) scale(1.15); }
    }
    @keyframes deriva-2 {
      from { transform: translate(0, 0) scale(1); }
      to { transform: translate(-120px, -30px) scale(1.12); }
    }
    @keyframes deriva-3 {
      from { transform: translate(0, 0) scale(1); }
      to { transform: translate(90px, -50px) scale(1.2); }
    }
    @keyframes brilho {
      0% { transform: translateX(-200px) skewX(-18deg); }
      36%, 100% { transform: translateX(640px) skewX(-18deg); }
    }
    @keyframes palavra {
      0% { opacity: 0; transform: translateY(26px); animation-timing-function: cubic-bezier(.2, .8, .2, 1); }
      4% { opacity: 1; transform: none; }
      14% { opacity: 1; transform: none; animation-timing-function: cubic-bezier(.6, 0, .8, .3); }
      18% { opacity: 0; transform: translateY(-26px); }
      100% { opacity: 0; transform: translateY(-26px); }
    }
    @keyframes pulso {
      0% { transform: scale(1); opacity: 0.75; }
      35%, 100% { transform: scale(2.8); opacity: 0; }
    }
    @keyframes traco {
      0% { stroke-dashoffset: 1; }
      20%, 88% { stroke-dashoffset: 0; }
      100% { stroke-dashoffset: -1; }
    }
    @keyframes desliza {
      from { transform: translateY(-12px); }
      to { transform: translateY(12px); }
    }
    /* Trilho de 133px até o marcador: 121px (-12) a 145px (+12) */
    @keyframes cresce {
      from { transform: scaleY(0.9098); }
      to { transform: scaleY(1.0902); }
    }

    @media (prefers-reduced-motion: reduce) {
      *, *::before, *::after { animation: none !important; }
      .movimento { display: none; }
      .rotativo { display: none; }
      .estatico-rm { display: inline; }
    }
  </style>

  <defs>
    <linearGradient id="fundo" gradientUnits="userSpaceOnUse" x1="0" y1="0" x2="1280" y2="480">
      <stop offset="0" stop-color="#041b33"/>
      <stop offset="0.55" stop-color="#0854a0"/>
      <stop offset="1" stop-color="#0a6ed1"/>
    </linearGradient>

    <clipPath id="recorte-painel">
      <rect width="1280" height="480" rx="24"/>
    </clipPath>

    <filter id="desfoque-aurora" x="-75%" y="-75%" width="250%" height="250%">
      <feGaussianBlur stdDeviation="60"/>
    </filter>

    <!-- Grade: pontos a cada 24px e linhas a cada 96px, esmaecendo nas bordas -->
    <pattern id="pontos" width="24" height="24" patternUnits="userSpaceOnUse">
      <circle cx="12" cy="12" r="1" fill="#ffffff"/>
    </pattern>
    <pattern id="linhas" width="96" height="96" patternUnits="userSpaceOnUse">
      <path d="M96 0.5H0.5V96" fill="none" stroke="#ffffff" stroke-width="1"/>
    </pattern>
    <radialGradient id="luz-grade" cx="0.36" cy="0.45" r="0.72">
      <stop offset="0" stop-color="#ffffff"/>
      <stop offset="0.55" stop-color="#ffffff" stop-opacity="0.45"/>
      <stop offset="1" stop-color="#ffffff" stop-opacity="0"/>
    </radialGradient>
    <mask id="mascara-grade" maskUnits="userSpaceOnUse" x="0" y="0" width="1280" height="480">
      <rect width="1280" height="480" fill="url(#luz-grade)"/>
    </mask>

    <!-- Título -->
    <linearGradient id="grad-titulo" gradientUnits="userSpaceOnUse" x1="0" y1="134" x2="0" y2="240">
      <stop offset="0" stop-color="#ffffff"/>
      <stop offset="0.5" stop-color="#dcecff"/>
      <stop offset="1" stop-color="#86bdff"/>
    </linearGradient>
    <linearGradient id="grad-brilho" x1="0" y1="0" x2="1" y2="0">
      <stop offset="0" stop-color="#a5f3fc" stop-opacity="0"/>
      <stop offset="0.32" stop-color="#a5f3fc" stop-opacity="0.75"/>
      <stop offset="0.5" stop-color="#ffffff"/>
      <stop offset="0.68" stop-color="#a5f3fc" stop-opacity="0.75"/>
      <stop offset="1" stop-color="#a5f3fc" stop-opacity="0"/>
    </linearGradient>
    <filter id="sombra-titulo" x="-10%" y="-25%" width="120%" height="160%">
      <feDropShadow dx="0" dy="8" stdDeviation="14" flood-color="#010b18" flood-opacity="0.45"/>
    </filter>
    <clipPath id="recorte-titulo">
      <text class="titulo" x="58" y="214">Cockpit</text>
    </clipPath>

    <!-- Palavra rotativa: o ícone gira dentro do ladrilho, a palavra numa faixa -->
    <clipPath id="recorte-ladrilho">
      <rect x="64" y="292" width="44" height="44" rx="12"/>
    </clipPath>
    <clipPath id="recorte-palavras">
      <rect x="116" y="284" width="564" height="60"/>
    </clipPath>

    <!-- Cartão de vidro -->
    <linearGradient id="vidro" x1="0" y1="0" x2="0" y2="1">
      <stop offset="0" stop-color="#ffffff" stop-opacity="0.13"/>
      <stop offset="1" stop-color="#ffffff" stop-opacity="0.08"/>
    </linearGradient>
    <linearGradient id="reflexo-topo" gradientUnits="userSpaceOnUse" x1="730" y1="0" x2="1194" y2="0">
      <stop offset="0" stop-color="#ffffff" stop-opacity="0"/>
      <stop offset="0.35" stop-color="#ffffff" stop-opacity="0.6"/>
      <stop offset="1" stop-color="#ffffff" stop-opacity="0"/>
    </linearGradient>
    <filter id="sombra-cartao" x="-20%" y="-20%" width="140%" height="150%">
      <feGaussianBlur stdDeviation="26"/>
    </filter>
    <filter id="sombra-realce" x="-10%" y="-40%" width="120%" height="200%">
      <feDropShadow dx="0" dy="8" stdDeviation="10" flood-color="#010b18" flood-opacity="0.35"/>
    </filter>

    <!-- Linha do tempo esmaecendo nas duas pontas (day-rail.tsx) -->
    <linearGradient id="trilho" gradientUnits="userSpaceOnUse" x1="0" y1="138" x2="0" y2="422">
      <stop offset="0" stop-color="#ffffff" stop-opacity="0"/>
      <stop offset="0.12" stop-color="#ffffff" stop-opacity="0.32"/>
      <stop offset="0.88" stop-color="#ffffff" stop-opacity="0.32"/>
      <stop offset="1" stop-color="#ffffff" stop-opacity="0"/>
    </linearGradient>
    <linearGradient id="percorrido" x1="0" y1="0" x2="0" y2="1">
      <stop offset="0" stop-color="#ffffff" stop-opacity="0"/>
      <stop offset="1" stop-color="#ffffff" stop-opacity="0.85"/>
    </linearGradient>
    <linearGradient id="linha-agora" gradientUnits="userSpaceOnUse" x1="826" y1="0" x2="1132" y2="0">
      <stop offset="0" stop-color="#ffffff" stop-opacity="0.7"/>
      <stop offset="1" stop-color="#ffffff" stop-opacity="0.2"/>
    </linearGradient>
  </defs>

  <!-- ================================================================
       FUNDO: gradiente da marca, auroras e grade
       ================================================================ -->
  <g clip-path="url(#recorte-painel)">
    <rect width="1280" height="480" fill="url(#fundo)"/>

    <circle class="aurora aurora-1" cx="420" cy="20" r="170" fill="#38bdf8" fill-opacity="0.35" filter="url(#desfoque-aurora)"/>
    <circle class="aurora aurora-2" cx="1130" cy="500" r="190" fill="#22d3ee" fill-opacity="0.24" filter="url(#desfoque-aurora)"/>
    <circle class="aurora aurora-3" cx="90" cy="480" r="150" fill="#60a5fa" fill-opacity="0.32" filter="url(#desfoque-aurora)"/>

    <g mask="url(#mascara-grade)">
      <rect width="1280" height="480" fill="url(#pontos)" opacity="0.16"/>
      <rect width="1280" height="480" fill="url(#linhas)" opacity="0.06"/>
    </g>
  </g>
  <rect x="0.5" y="0.5" width="1279" height="479" rx="23.5" fill="none" stroke="#ffffff" stroke-opacity="0.1"/>

  <!-- ================================================================
       COLUNA ESQUERDA
       ================================================================ -->

  <!-- Pílula -->
  <g class="entra" style="animation-delay: .05s">
    <rect class="vidro-claro" x="64" y="70" width="372" height="36" rx="18"/>
    <g class="ic-ciano" transform="translate(78 79) scale(0.75)" fill="none" stroke-width="1.5" stroke-linecap="round" stroke-linejoin="round">
      <path d="M9.937 15.5A2 2 0 0 0 8.5 14.063l-6.135-1.582a.5.5 0 0 1 0-.962L8.5 9.936A2 2 0 0 0 9.937 8.5l1.582-6.135a.5.5 0 0 1 .963 0L14.063 8.5A2 2 0 0 0 15.5 9.937l6.135 1.581a.5.5 0 0 1 0 .964L15.5 14.063a2 2 0 0 0-1.437 1.437l-1.582 6.135a.5.5 0 0 1-.963 0z"/><path d="M20 3v4"/><path d="M22 5h-4"/><path d="M4 17v2"/><path d="M5 18H3"/>
    </g>
    <text class="pilula-t" x="104" y="93">Consultório de estética · Dra. Érika Passos</text>
  </g>

  <!-- Título com reflexo -->
  <g class="entra" style="animation-delay: .15s">
    <text class="titulo" x="58" y="214" fill="url(#grad-titulo)" filter="url(#sombra-titulo)">Cockpit</text>
    <g clip-path="url(#recorte-titulo)">
      <rect class="brilho" x="0" y="118" width="160" height="140" fill="url(#grad-brilho)"/>
    </g>
  </g>

  <!-- Frase -->
  <g class="entra" style="animation-delay: .3s">
    <text class="frase" x="62" y="268">O consultório inteiro <tspan class="frase-forte">em uma tela.</tspan></text>
  </g>

  <!-- Palavra rotativa: módulos do menu (src/lib/nav.ts), com o ícone de cada um -->
  <g class="entra" style="animation-delay: .45s">
    <rect class="vidro-claro" x="64" y="292" width="44" height="44" rx="12"/>

    <g class="rotativo">
      <g clip-path="url(#recorte-ladrilho)">
        <g class="palavra" style="animation-delay: .6s">
          <g class="ic-branco" transform="translate(74 302)" fill="none" stroke-width="1.5" stroke-linecap="round" stroke-linejoin="round">
            <path d="M8 2v4"/><path d="M16 2v4"/><rect width="18" height="18" x="3" y="4" rx="2"/><path d="M3 10h18"/><path d="M8 14h.01"/><path d="M12 14h.01"/><path d="M16 14h.01"/><path d="M8 18h.01"/><path d="M12 18h.01"/><path d="M16 18h.01"/>
          </g>
        </g>
        <g class="palavra" style="animation-delay: 2.6s">
          <g class="ic-branco" transform="translate(74 302)" fill="none" stroke-width="1.5" stroke-linecap="round" stroke-linejoin="round">
            <path d="M16 21v-2a4 4 0 0 0-4-4H6a4 4 0 0 0-4 4v2"/><circle cx="9" cy="7" r="4"/><path d="M22 21v-2a4 4 0 0 0-3-3.87"/><path d="M16 3.13a4 4 0 0 1 0 7.75"/>
          </g>
        </g>
        <g class="palavra" style="animation-delay: 4.6s">
          <g class="ic-branco" transform="translate(74 302)" fill="none" stroke-width="1.5" stroke-linecap="round" stroke-linejoin="round">
            <rect width="8" height="4" x="8" y="2" rx="1" ry="1"/><path d="M16 4h2a2 2 0 0 1 2 2v14a2 2 0 0 1-2 2H6a2 2 0 0 1-2-2V6a2 2 0 0 1 2-2h2"/><path d="M9 14h6"/><path d="M12 17v-6"/>
          </g>
        </g>
        <g class="palavra" style="animation-delay: 6.6s">
          <g class="ic-branco" transform="translate(74 302)" fill="none" stroke-width="1.5" stroke-linecap="round" stroke-linejoin="round">
            <path d="M19 7V4a1 1 0 0 0-1-1H5a2 2 0 0 0 0 4h15a1 1 0 0 1 1 1v4h-3a2 2 0 0 0 0 4h3a1 1 0 0 0 1-1v-2a1 1 0 0 0-1-1"/><path d="M3 5v14a2 2 0 0 0 2 2h15a1 1 0 0 0 1-1v-4"/>
          </g>
        </g>
        <g class="palavra" style="animation-delay: 8.6s">
          <g class="ic-branco" transform="translate(74 302)" fill="none" stroke-width="1.5" stroke-linecap="round" stroke-linejoin="round">
            <path d="m18 5-2.414-2.414A2 2 0 0 0 14.172 2H6a2 2 0 0 0-2 2v16a2 2 0 0 0 2 2h12a2 2 0 0 0 2-2"/><path d="M21.378 12.626a1 1 0 0 0-3.004-3.004l-4.01 4.012a2 2 0 0 0-.506.854l-.837 2.87a.5.5 0 0 0 .62.62l2.87-.837a2 2 0 0 0 .854-.506z"/><path d="M8 18h1"/>
          </g>
        </g>
        <g class="palavra" style="animation-delay: 10.6s">
          <g class="ic-branco" transform="translate(74 302)" fill="none" stroke-width="1.5" stroke-linecap="round" stroke-linejoin="round">
            <path d="M7.9 20A9 9 0 1 0 4 16.1L2 22Z"/><path d="M15.8 9.2a2.5 2.5 0 0 0-3.5 0l-.3.4-.35-.3a2.42 2.42 0 1 0-3.2 3.6l3.6 3.5 3.6-3.5c1.2-1.2 1.1-2.7.2-3.7"/>
          </g>
        </g>
      </g>

      <g clip-path="url(#recorte-palavras)">
        <g class="palavra" style="animation-delay: .6s">
          <text class="palavra-t" x="124" y="325">Agenda<tspan class="cursor">|</tspan></text>
        </g>
        <g class="palavra" style="animation-delay: 2.6s">
          <text class="palavra-t" x="124" y="325">Pacientes<tspan class="cursor">|</tspan></text>
        </g>
        <g class="palavra" style="animation-delay: 4.6s">
          <text class="palavra-t" x="124" y="325">Prontuários<tspan class="cursor">|</tspan></text>
        </g>
        <g class="palavra" style="animation-delay: 6.6s">
          <text class="palavra-t" x="124" y="325">Financeiro<tspan class="cursor">|</tspan></text>
        </g>
        <g class="palavra" style="animation-delay: 8.6s">
          <text class="palavra-t" x="124" y="325">Documentos e Contratos<tspan class="cursor">|</tspan></text>
        </g>
        <g class="palavra" style="animation-delay: 10.6s">
          <text class="palavra-t" x="124" y="325">Relacionamento<tspan class="cursor">|</tspan></text>
        </g>
      </g>
    </g>

    <!-- Sem movimento: a lista inteira, parada -->
    <g class="estatico-rm">
      <g class="ic-branco" transform="translate(74 302)" fill="none" stroke-width="1.5" stroke-linecap="round" stroke-linejoin="round">
        <rect width="7" height="7" x="3" y="3" rx="1"/><rect width="7" height="7" x="14" y="3" rx="1"/><rect width="7" height="7" x="14" y="14" rx="1"/><rect width="7" height="7" x="3" y="14" rx="1"/>
      </g>
      <text class="lista-t" x="124" y="308">Agenda · Pacientes · Prontuários · Financeiro ·</text>
      <text class="lista-t" x="124" y="331">Documentos e Contratos · Relacionamento</text>
    </g>
  </g>

  <!-- Stack -->
  <g class="entra" style="animation-delay: .6s">
    <rect class="vidro-claro" x="64" y="372" width="105" height="30" rx="15"/>
    <text class="stack-t" x="116.5" y="392">Next.js 15</text>
  </g>
  <g class="entra" style="animation-delay: .68s">
    <rect class="vidro-claro" x="179" y="372" width="90" height="30" rx="15"/>
    <text class="stack-t" x="224" y="392">React 19</text>
  </g>
  <g class="entra" style="animation-delay: .76s">
    <rect class="vidro-claro" x="279" y="372" width="90" height="30" rx="15"/>
    <text class="stack-t" x="324" y="392">Supabase</text>
  </g>
  <g class="entra" style="animation-delay: .84s">
    <rect class="vidro-claro" x="379" y="372" width="136" height="30" rx="15"/>
    <text class="stack-t" x="447" y="392">Postgres + RLS</text>
  </g>
  <g class="entra" style="animation-delay: .92s">
    <rect class="vidro-claro" x="525" y="372" width="97" height="30" rx="15"/>
    <text class="stack-t" x="573.5" y="392">São Paulo</text>
  </g>

  <!-- ================================================================
       COLUNA DIREITA: "Agenda de hoje" da Visão Geral
       (day-rail.tsx, day-rail-item.tsx, now-marker.tsx)
       ================================================================ -->
  <g class="flutua">
    <g class="entra-cartao">
      <!-- Sombra e vidro -->
      <rect x="730" y="84" width="464" height="352" rx="22" fill="#010b18" fill-opacity="0.45" filter="url(#sombra-cartao)"/>
      <rect x="708" y="52" width="508" height="376" rx="22" fill="url(#vidro)" stroke="#ffffff" stroke-opacity="0.2"/>
      <path d="M730 52.5H1194" fill="none" stroke="url(#reflexo-topo)" stroke-width="1"/>

      <!-- Cabeçalho do cartão -->
      <g class="aparece" style="animation-delay: .55s">
        <text class="c-titulo" x="732" y="90">Agenda de hoje</text>
        <text class="c-sub tab" x="732" y="114">4 horários entre 09:00 e 15:30</text>

        <rect class="vidro-claro" x="950" y="70" width="242" height="30" rx="15"/>
        <g class="ic-branco" transform="translate(964 77) scale(0.6667)" fill="none" stroke-width="1.5" stroke-linecap="round" stroke-linejoin="round">
          <circle cx="12" cy="12" r="10"/><polyline points="12 6 12 12 16 14"/>
        </g>
        <text class="selo-t" x="988" y="90">Hoje · horário de São Paulo</text>

        <line x1="732" y1="130.5" x2="1192" y2="130.5" stroke="#ffffff" stroke-opacity="0.14"/>
      </g>

      <!-- Linha do tempo -->
      <rect x="811" y="138" width="2" height="284" fill="url(#trilho)"/>
      <g class="aparece" style="animation-delay: 1.5s">
        <rect class="percorrido" x="811" y="146" width="2" height="133" fill="url(#percorrido)"/>
      </g>
      <g class="movimento">
        <circle r="2.5" fill="#bff0ff" opacity="0">
          <animateMotion path="M812 146V414" dur="6s" begin="1.8s" repeatCount="indefinite"/>
          <animate attributeName="opacity" values="0;0.9;0.9;0" keyTimes="0;0.15;0.8;1" dur="6s" begin="1.8s" repeatCount="indefinite"/>
        </circle>
      </g>

      <!-- 09:00 · Confirmado -->
      <g class="entra-lado" style="animation-delay: .8s">
        <rect class="linha" x="732" y="142" width="460" height="54" rx="12"/>
        <text class="hora tab" x="792" y="174">09:00</text>
        <circle cx="812" cy="169" r="6" fill="#3fb950"/>
        <text class="nome" x="834" y="166">Ana S.</text>
        <rect class="chip-pos" x="950" y="148" width="112" height="24" rx="6"/>
        <g class="ic-pos" transform="translate(958 153) scale(0.5833)" fill="none" stroke-width="1.75" stroke-linecap="round" stroke-linejoin="round">
          <path d="M20 6 9 17l-5-5"/>
        </g>
        <text class="chip-t chip-pos-t" x="1014.5" y="164.5">Confirmado</text>
        <text class="proc" x="834" y="186">Limpeza de pele profunda · 60 min</text>
        <g class="seta" transform="translate(1160 159) scale(0.8333)" fill="none" stroke-width="1.5" stroke-linecap="round" stroke-linejoin="round">
          <path d="m9 18 6-6-6-6"/>
        </g>
      </g>

      <!-- 10:30 · Em atendimento (o que está acontecendo agora sobe) -->
      <g class="entra-lado" style="animation-delay: .95s">
        <rect class="linha-realce" x="732" y="202" width="460" height="54" rx="12" filter="url(#sombra-realce)"/>
        <text class="hora hora-realce tab" x="792" y="234">10:30</text>
        <circle class="halo-curso pulso" cx="812" cy="229" r="6"/>
        <circle class="ponto-curso" cx="812" cy="229" r="6"/>
        <text class="nome nome-realce" x="834" y="226">Beatriz M.</text>
        <rect class="chip-curso" x="950" y="208" width="142" height="24" rx="6"/>
        <g class="ic-curso" transform="translate(958 213) scale(0.5833)" fill="none" stroke-width="1.75" stroke-linecap="round" stroke-linejoin="round">
          <path class="traco" pathLength="1" d="M22 12h-2.48a2 2 0 0 0-1.93 1.46l-2.35 8.36a.25.25 0 0 1-.48 0L9.24 2.18a.25.25 0 0 0-.48 0l-2.35 8.36A2 2 0 0 1 4.49 12H2"/>
        </g>
        <text class="chip-t chip-curso-t" x="1029.5" y="224.5">Em atendimento</text>
        <text class="proc proc-realce" x="834" y="246">Toxina botulínica · 45 min</text>
        <g class="seta-realce" transform="translate(1160 219) scale(0.8333)" fill="none" stroke-width="1.5" stroke-linecap="round" stroke-linejoin="round">
          <path d="m9 18 6-6-6-6"/>
        </g>
      </g>

      <!-- 13:00 · Aguardando confirmação -->
      <g class="entra-lado" style="animation-delay: 1.1s">
        <rect class="linha" x="732" y="302" width="460" height="54" rx="12"/>
        <text class="hora tab" x="792" y="334">13:00</text>
        <circle cx="812" cy="329" r="6" fill="#e9730c"/>
        <text class="nome" x="834" y="326">Carla R.</text>
        <rect class="chip-at" x="950" y="308" width="200" height="24" rx="6"/>
        <g class="ic-at" transform="translate(958 313) scale(0.5833)" fill="none" stroke-width="1.75" stroke-linecap="round" stroke-linejoin="round">
          <circle cx="12" cy="12" r="10"/><polyline points="12 6 12 12 16.5 12"/>
        </g>
        <text class="chip-t chip-at-t" x="1058.5" y="324.5">Aguardando confirmação</text>
        <text class="proc" x="834" y="346">Peeling químico · 40 min</text>
        <g class="seta" transform="translate(1160 319) scale(0.8333)" fill="none" stroke-width="1.5" stroke-linecap="round" stroke-linejoin="round">
          <path d="m9 18 6-6-6-6"/>
        </g>
      </g>

      <!-- 15:30 · Agendado -->
      <g class="entra-lado" style="animation-delay: 1.25s">
        <rect class="linha" x="732" y="362" width="460" height="54" rx="12"/>
        <text class="hora tab" x="792" y="394">15:30</text>
        <circle cx="812" cy="389" r="5" fill="#0a2f5c" stroke="#79c0ff" stroke-width="2"/>
        <text class="nome" x="834" y="386">Daniela T.</text>
        <rect class="chip-inf" x="950" y="368" width="104" height="24" rx="6"/>
        <g class="ic-inf" transform="translate(958 373) scale(0.5833)" fill="none" stroke-width="1.75" stroke-linecap="round" stroke-linejoin="round">
          <circle cx="12" cy="12" r="10"/>
        </g>
        <text class="chip-t chip-inf-t" x="1010.5" y="384.5">Agendado</text>
        <text class="proc" x="834" y="406">Avaliação inicial · 30 min</text>
        <g class="seta" transform="translate(1160 379) scale(0.8333)" fill="none" stroke-width="1.5" stroke-linecap="round" stroke-linejoin="round">
          <path d="m9 18 6-6-6-6"/>
        </g>
      </g>

      <!-- Marcador "agora": logo abaixo do atendimento em curso -->
      <g class="aparece" style="animation-delay: 1.5s">
        <g class="desliza">
          <text class="agora-t tab" x="792" y="283.5" text-anchor="end">10:52</text>
          <line x1="826" y1="279" x2="1132" y2="279" stroke="url(#linha-agora)" stroke-width="1.5"/>
          <circle class="pulso" cx="812" cy="279" r="4.5" fill="#7dd3fc" style="animation-delay: -3s"/>
          <circle cx="812" cy="279" r="4.5" fill="#ffffff"/>
          <text class="agora-rotulo" x="1192" y="283.5">AGORA</text>
        </g>
      </g>
    </g>
  </g>
</svg>
